<svg width="320" height="64" viewBox="0 0 320 64" fill="none" xmlns="http://www.w3.org/2000/svg">
<rect x="0.333374" width="319" height="64" rx="8" fill="#000928"/>
<path fill-rule="evenodd" clip-rule="evenodd" d="M61.7866 21.4061C61.6258 21.3506 61.4169 21.3332 60.363 21.3332H55.2666C54.4979 21.3332 54.0015 21.3343 53.6237 21.3651C53.2615 21.3947 53.1272 21.4449 53.0613 21.4785C52.8104 21.6064 52.6065 21.8103 52.4786 22.0612C52.445 22.1272 52.3948 22.2614 52.3652 22.6237C52.3381 22.9559 52.334 23.3797 52.3334 23.9999H63.5093L62.9867 22.9547C62.5154 22.0121 62.4064 21.833 62.2848 21.714C62.1436 21.5757 61.9735 21.4705 61.7866 21.4061ZM66.4907 23.9999L65.3718 21.7622C65.3469 21.7123 65.3222 21.6628 65.2978 21.6138C64.9448 20.9055 64.6344 20.2825 64.1507 19.8089C63.7272 19.394 63.2167 19.0785 62.6562 18.8852C62.0162 18.6644 61.3202 18.6654 60.5288 18.6664C60.474 18.6665 60.4188 18.6665 60.363 18.6665L55.2152 18.6665C54.5124 18.6665 53.906 18.6665 53.4066 18.7073C52.8795 18.7504 52.3552 18.8455 51.8507 19.1025C51.098 19.486 50.4861 20.0979 50.1026 20.8506C49.8455 21.3551 49.7505 21.8794 49.7074 22.4065C49.6666 22.9059 49.6666 23.5123 49.6666 24.2152L49.6666 37.6549C49.6666 38.7282 49.6666 39.6141 49.7256 40.3356C49.7868 41.0851 49.9182 41.774 50.2479 42.4212C50.7593 43.4247 51.5751 44.2406 52.5787 44.7519C53.2258 45.0816 53.9147 45.2131 54.6642 45.2743C55.3858 45.3332 56.2716 45.3332 57.3449 45.3332H71.3217C72.395 45.3332 73.2808 45.3332 74.0024 45.2743C74.7519 45.2131 75.4408 45.0816 76.0879 44.7519C77.0914 44.2406 77.9073 43.4247 78.4187 42.4212C78.7484 41.774 78.8798 41.0851 78.941 40.3356C79 39.6141 79 38.7283 79 37.655V31.6781C79 30.6048 79 29.719 78.941 28.9974C78.8798 28.248 78.7484 27.559 78.4187 26.9119C77.9073 25.9084 77.0914 25.0925 76.0879 24.5812C75.4408 24.2515 74.7519 24.12 74.0024 24.0588C73.2808 23.9998 72.395 23.9999 71.3217 23.9999L66.4907 23.9999ZM65.6398 26.6665C65.6583 26.6669 65.6769 26.6669 65.6955 26.6665H71.2666C72.4087 26.6665 73.1851 26.6676 73.7852 26.7166C74.3698 26.7644 74.6687 26.8509 74.8773 26.9572C75.379 27.2129 75.787 27.6208 76.0426 28.1226C76.1489 28.3311 76.2355 28.63 76.2832 29.2146C76.3323 29.8147 76.3333 30.5911 76.3333 31.7332V37.5999C76.3333 38.742 76.3323 39.5184 76.2832 40.1185C76.2355 40.703 76.1489 41.002 76.0426 41.2105C75.787 41.7123 75.379 42.1202 74.8773 42.3759C74.6687 42.4822 74.3698 42.5687 73.7852 42.6165C73.1851 42.6655 72.4087 42.6665 71.2666 42.6665H57.4C56.2579 42.6665 55.4815 42.6655 54.8813 42.6165C54.2968 42.5687 53.9979 42.4822 53.7893 42.3759C53.2876 42.1202 52.8796 41.7123 52.6239 41.2105C52.5177 41.002 52.4311 40.703 52.3834 40.1185C52.3343 39.5184 52.3333 38.742 52.3333 37.5999V26.6665H65.6398Z" fill="#FFC700"/>
<path d="M65.6399 26.6666C65.6584 26.667 65.677 26.667 65.6956 26.6666H71.2667C72.4088 26.6666 73.1852 26.6676 73.7853 26.7167C74.3699 26.7644 74.6688 26.851 74.8773 26.9572C75.3791 27.2129 75.7871 27.6208 76.0427 28.1226C76.149 28.3311 76.2355 28.6301 76.2833 29.2146C76.3323 29.8148 76.3334 30.5911 76.3334 31.7333V37.5999C76.3334 38.742 76.3323 39.5184 76.2833 40.1185C76.2355 40.7031 76.149 41.002 76.0427 41.2106C75.7871 41.7123 75.3791 42.1203 74.8773 42.3759C74.6688 42.4822 74.3699 42.5688 73.7853 42.6165C73.1852 42.6655 72.4088 42.6666 71.2667 42.6666H57.4C56.2579 42.6666 55.4815 42.6655 54.8814 42.6165C54.2969 42.5688 53.9979 42.4822 53.7894 42.3759C53.2876 42.1203 52.8797 41.7123 52.624 41.2106C52.5178 41.002 52.4312 40.7031 52.3834 40.1185C52.3344 39.5184 52.3334 38.742 52.3334 37.5999V26.6666H65.6399Z" fill="#FFC700"/>
<path d="M65.6399 26.6666C65.6584 26.667 65.677 26.667 65.6956 26.6666H71.2667C72.4088 26.6666 73.1852 26.6676 73.7853 26.7167C74.3699 26.7644 74.6688 26.851 74.8773 26.9572C75.3791 27.2129 75.7871 27.6208 76.0427 28.1226C76.149 28.3311 76.2355 28.6301 76.2833 29.2146C76.3323 29.8148 76.3334 30.5911 76.3334 31.7333V37.5999C76.3334 38.742 76.3323 39.5184 76.2833 40.1185C76.2355 40.7031 76.149 41.002 76.0427 41.2106C75.7871 41.7123 75.3791 42.1203 74.8773 42.3759C74.6688 42.4822 74.3699 42.5688 73.7853 42.6165C73.1852 42.6655 72.4088 42.6666 71.2667 42.6666H57.4C56.2579 42.6666 55.4815 42.6655 54.8814 42.6165C54.2969 42.5688 53.9979 42.4822 53.7894 42.3759C53.2876 42.1203 52.8797 41.7123 52.624 41.2106C52.5178 41.002 52.4312 40.7031 52.3834 40.1185C52.3344 39.5184 52.3334 38.742 52.3334 37.5999V26.6666H65.6399Z" fill="white" fill-opacity="0.6"/>
<path d="M60.3631 21.3333C61.417 21.3333 61.6259 21.3506 61.7867 21.4061C61.9735 21.4706 62.1437 21.5757 62.2849 21.714C62.4065 21.8331 62.5155 22.0122 62.9867 22.9548L63.5093 23.9999H52.3335C52.3341 23.3798 52.3381 22.9559 52.3653 22.6237C52.3949 22.2615 52.4451 22.1272 52.4787 22.0613C52.6065 21.8104 52.8105 21.6064 53.0614 21.4786C53.1273 21.445 53.2616 21.3947 53.6238 21.3652C54.0016 21.3343 54.498 21.3333 55.2667 21.3333H60.3631Z" fill="#FFC700"/>
<path d="M60.3631 21.3333C61.417 21.3333 61.6259 21.3506 61.7867 21.4061C61.9735 21.4706 62.1437 21.5757 62.2849 21.714C62.4065 21.8331 62.5155 22.0122 62.9867 22.9548L63.5093 23.9999H52.3335C52.3341 23.3798 52.3381 22.9559 52.3653 22.6237C52.3949 22.2615 52.4451 22.1272 52.4787 22.0613C52.6065 21.8104 52.8105 21.6064 53.0614 21.4786C53.1273 21.445 53.2616 21.3947 53.6238 21.3652C54.0016 21.3343 54.498 21.3333 55.2667 21.3333H60.3631Z" fill="white" fill-opacity="0.6"/>
<path d="M123.512 29.0994C123.394 28.7159 123.231 28.3726 123.022 28.0696C122.819 27.7618 122.572 27.4991 122.284 27.2812C122 27.0634 121.673 26.9001 121.304 26.7912C120.934 26.6776 120.532 26.6207 120.096 26.6207C119.315 26.6207 118.619 26.8172 118.008 27.2102C117.397 27.6032 116.917 28.1809 116.566 28.9432C116.221 29.7008 116.048 30.6241 116.048 31.7131C116.048 32.8116 116.221 33.742 116.566 34.5043C116.912 35.2666 117.393 35.8466 118.008 36.2443C118.624 36.6373 119.339 36.8338 120.153 36.8338C120.892 36.8338 121.531 36.6918 122.071 36.4077C122.615 36.1236 123.034 35.7211 123.328 35.2003C123.621 34.6747 123.768 34.0592 123.768 33.3537L124.365 33.446H120.416V31.3864H126.318V33.1335C126.318 34.3788 126.053 35.456 125.522 36.3651C124.992 37.2741 124.263 37.9749 123.335 38.4673C122.407 38.955 121.341 39.1989 120.139 39.1989C118.799 39.1989 117.622 38.8982 116.609 38.2969C115.6 37.6908 114.812 36.8314 114.244 35.7188C113.68 34.6013 113.399 33.2756 113.399 31.7415C113.399 30.5672 113.564 29.5185 113.896 28.5952C114.232 27.6719 114.701 26.8883 115.302 26.2443C115.903 25.5956 116.609 25.1032 117.419 24.767C118.228 24.4261 119.109 24.2557 120.061 24.2557C120.866 24.2557 121.616 24.3741 122.312 24.6108C123.008 24.8428 123.626 25.1742 124.166 25.6051C124.71 26.036 125.158 26.5473 125.508 27.1392C125.858 27.7311 126.088 28.3845 126.197 29.0994H123.512ZM133.511 39.2131C132.445 39.2131 131.522 38.9787 130.741 38.5099C129.959 38.0412 129.353 37.3854 128.923 36.5426C128.496 35.6998 128.283 34.715 128.283 33.5881C128.283 32.4612 128.496 31.474 128.923 30.6264C129.353 29.7789 129.959 29.1207 130.741 28.652C131.522 28.1832 132.445 27.9489 133.511 27.9489C134.576 27.9489 135.499 28.1832 136.28 28.652C137.062 29.1207 137.665 29.7789 138.092 30.6264C138.522 31.474 138.738 32.4612 138.738 33.5881C138.738 34.715 138.522 35.6998 138.092 36.5426C137.665 37.3854 137.062 38.0412 136.28 38.5099C135.499 38.9787 134.576 39.2131 133.511 39.2131ZM133.525 37.1534C134.102 37.1534 134.585 36.9948 134.974 36.6776C135.362 36.3556 135.651 35.9247 135.84 35.3849C136.034 34.8452 136.131 34.2438 136.131 33.581C136.131 32.9134 136.034 32.3097 135.84 31.7699C135.651 31.2254 135.362 30.7921 134.974 30.4702C134.585 30.1482 134.102 29.9872 133.525 29.9872C132.933 29.9872 132.441 30.1482 132.048 30.4702C131.659 30.7921 131.368 31.2254 131.174 31.7699C130.985 32.3097 130.89 32.9134 130.89 33.581C130.89 34.2438 130.985 34.8452 131.174 35.3849C131.368 35.9247 131.659 36.3556 132.048 36.6776C132.441 36.9948 132.933 37.1534 133.525 37.1534ZM151.328 28.0909V30.0795H145.057V28.0909H151.328ZM146.605 25.4773H149.176V35.7188C149.176 36.0644 149.228 36.3295 149.333 36.5142C149.442 36.6941 149.584 36.8172 149.759 36.8835C149.934 36.9498 150.128 36.983 150.341 36.983C150.502 36.983 150.649 36.9711 150.782 36.9474C150.919 36.9238 151.023 36.9025 151.094 36.8835L151.527 38.8935C151.39 38.9408 151.193 38.9929 150.938 39.0497C150.687 39.1065 150.379 39.1397 150.014 39.1491C149.371 39.1681 148.791 39.071 148.274 38.858C147.758 38.6402 147.349 38.304 147.046 37.8494C146.747 37.3949 146.601 36.8267 146.605 36.1449V25.4773ZM158.12 39.2131C157.055 39.2131 156.131 38.9787 155.35 38.5099C154.569 38.0412 153.963 37.3854 153.532 36.5426C153.106 35.6998 152.893 34.715 152.893 33.5881C152.893 32.4612 153.106 31.474 153.532 30.6264C153.963 29.7789 154.569 29.1207 155.35 28.652C156.131 28.1832 157.055 27.9489 158.12 27.9489C159.185 27.9489 160.109 28.1832 160.89 28.652C161.671 29.1207 162.275 29.7789 162.701 30.6264C163.132 31.474 163.347 32.4612 163.347 33.5881C163.347 34.715 163.132 35.6998 162.701 36.5426C162.275 37.3854 161.671 38.0412 160.89 38.5099C160.109 38.9787 159.185 39.2131 158.12 39.2131ZM158.134 37.1534C158.712 37.1534 159.195 36.9948 159.583 36.6776C159.971 36.3556 160.26 35.9247 160.449 35.3849C160.644 34.8452 160.741 34.2438 160.741 33.581C160.741 32.9134 160.644 32.3097 160.449 31.7699C160.26 31.2254 159.971 30.7921 159.583 30.4702C159.195 30.1482 158.712 29.9872 158.134 29.9872C157.542 29.9872 157.05 30.1482 156.657 30.4702C156.269 30.7921 155.977 31.2254 155.783 31.7699C155.594 32.3097 155.499 32.9134 155.499 33.581C155.499 34.2438 155.594 34.8452 155.783 35.3849C155.977 35.9247 156.269 36.3556 156.657 36.6776C157.05 36.9948 157.542 37.1534 158.134 37.1534ZM172.472 39H169.659L174.78 24.4545H178.033L183.161 39H180.348L176.463 27.4375H176.35L172.472 39ZM172.564 33.2969H180.235V35.4134H172.564V33.2969ZM187.534 24.4545V39H184.963V24.4545H187.534ZM192.749 24.4545V39H190.178V24.4545H192.749ZM200.467 39V24.4545H209.785V26.6634H203.102V30.6122H209.146V32.821H203.102V39H200.467ZM216.03 39.2131C214.965 39.2131 214.041 38.9787 213.26 38.5099C212.479 38.0412 211.873 37.3854 211.442 36.5426C211.016 35.6998 210.803 34.715 210.803 33.5881C210.803 32.4612 211.016 31.474 211.442 30.6264C211.873 29.7789 212.479 29.1207 213.26 28.652C214.041 28.1832 214.965 27.9489 216.03 27.9489C217.095 27.9489 218.019 28.1832 218.8 28.652C219.581 29.1207 220.185 29.7789 220.611 30.6264C221.042 31.474 221.257 32.4612 221.257 33.5881C221.257 34.715 221.042 35.6998 220.611 36.5426C220.185 37.3854 219.581 38.0412 218.8 38.5099C218.019 38.9787 217.095 39.2131 216.03 39.2131ZM216.044 37.1534C216.622 37.1534 217.105 36.9948 217.493 36.6776C217.881 36.3556 218.17 35.9247 218.36 35.3849C218.554 34.8452 218.651 34.2438 218.651 33.581C218.651 32.9134 218.554 32.3097 218.36 31.7699C218.17 31.2254 217.881 30.7921 217.493 30.4702C217.105 30.1482 216.622 29.9872 216.044 29.9872C215.452 29.9872 214.96 30.1482 214.567 30.4702C214.179 30.7921 213.888 31.2254 213.693 31.7699C213.504 32.3097 213.409 32.9134 213.409 33.581C213.409 34.2438 213.504 34.8452 213.693 35.3849C213.888 35.9247 214.179 36.3556 214.567 36.6776C214.96 36.9948 215.452 37.1534 216.044 37.1534ZM226.011 24.4545V39H223.44V24.4545H226.011ZM232.703 39.1918C231.846 39.1918 231.079 38.9716 230.402 38.5312C229.724 38.0909 229.189 37.4517 228.796 36.6136C228.403 35.7756 228.207 34.7576 228.207 33.5597C228.207 32.3475 228.406 31.3248 228.804 30.4915C229.206 29.6534 229.748 29.0213 230.43 28.5952C231.112 28.1643 231.872 27.9489 232.71 27.9489C233.349 27.9489 233.875 28.0578 234.286 28.2756C234.698 28.4886 235.025 28.7467 235.267 29.0497C235.508 29.348 235.695 29.6297 235.828 29.8949H235.934V24.4545H238.512V39H235.984V37.2812H235.828C235.695 37.5464 235.503 37.8281 235.252 38.1264C235.001 38.42 234.67 38.6709 234.258 38.8793C233.846 39.0876 233.328 39.1918 232.703 39.1918ZM233.42 37.0824C233.965 37.0824 234.429 36.9356 234.812 36.642C235.196 36.3437 235.487 35.9295 235.686 35.3991C235.885 34.8688 235.984 34.2509 235.984 33.5455C235.984 32.84 235.885 32.2268 235.686 31.706C235.492 31.1851 235.203 30.7803 234.819 30.4915C234.44 30.2027 233.974 30.0582 233.42 30.0582C232.847 30.0582 232.369 30.2074 231.985 30.5057C231.602 30.804 231.313 31.2159 231.119 31.7415C230.925 32.267 230.828 32.8684 230.828 33.5455C230.828 34.2273 230.925 34.8357 231.119 35.3707C231.318 35.901 231.609 36.3201 231.992 36.6278C232.381 36.9309 232.857 37.0824 233.42 37.0824ZM246.082 39.2131C244.988 39.2131 244.043 38.9858 243.248 38.5312C242.457 38.072 241.849 37.4233 241.423 36.5852C240.996 35.7424 240.783 34.7505 240.783 33.6094C240.783 32.4872 240.996 31.5024 241.423 30.6548C241.853 29.8026 242.455 29.1397 243.226 28.6662C243.998 28.188 244.905 27.9489 245.947 27.9489C246.619 27.9489 247.253 28.0578 247.85 28.2756C248.451 28.4886 248.982 28.8201 249.441 29.2699C249.905 29.7197 250.27 30.2926 250.535 30.9886C250.8 31.6799 250.932 32.5038 250.932 33.4602V34.2486H241.991V32.5156H248.468C248.463 32.0232 248.357 31.5852 248.148 31.2017C247.94 30.8134 247.649 30.508 247.275 30.2855C246.905 30.063 246.475 29.9517 245.982 29.9517C245.457 29.9517 244.995 30.0795 244.597 30.3352C244.199 30.5862 243.889 30.9176 243.667 31.3295C243.449 31.7367 243.338 32.1842 243.333 32.6719V34.1847C243.333 34.8191 243.449 35.3636 243.681 35.8182C243.913 36.268 244.237 36.6136 244.654 36.8551C245.071 37.0919 245.558 37.2102 246.117 37.2102C246.491 37.2102 246.83 37.1581 247.133 37.054C247.436 36.9451 247.699 36.7865 247.921 36.5781C248.144 36.3698 248.312 36.1117 248.425 35.804L250.826 36.0739C250.674 36.7083 250.386 37.2623 249.959 37.7358C249.538 38.2045 248.998 38.5691 248.34 38.8295C247.682 39.0852 246.929 39.2131 246.082 39.2131ZM253.108 39V28.0909H255.6V29.9091H255.714C255.913 29.2794 256.254 28.794 256.737 28.4531C257.224 28.1075 257.781 27.9347 258.406 27.9347C258.548 27.9347 258.706 27.9418 258.882 27.956C259.062 27.9654 259.211 27.982 259.329 28.0057V30.3707C259.22 30.3329 259.047 30.2997 258.811 30.2713C258.579 30.2382 258.354 30.2216 258.136 30.2216C257.667 30.2216 257.246 30.3234 256.872 30.527C256.502 30.7259 256.211 31.0028 255.998 31.358C255.785 31.7131 255.679 32.1226 255.679 32.5866V39H253.108ZM269.659 30.9744L267.316 31.2301C267.249 30.9934 267.133 30.7708 266.968 30.5625C266.807 30.3542 266.589 30.1861 266.314 30.0582C266.04 29.9304 265.703 29.8665 265.306 29.8665C264.771 29.8665 264.321 29.9825 263.956 30.2145C263.596 30.4465 263.419 30.7472 263.424 31.1165C263.419 31.4337 263.535 31.6918 263.772 31.8906C264.013 32.0895 264.411 32.2528 264.965 32.3807L266.826 32.7784C267.858 33.0009 268.625 33.3537 269.127 33.8366C269.633 34.3196 269.889 34.9517 269.894 35.733C269.889 36.4195 269.688 37.0256 269.29 37.5511C268.897 38.072 268.35 38.4792 267.649 38.7727C266.949 39.0663 266.144 39.2131 265.235 39.2131C263.899 39.2131 262.825 38.9337 262.01 38.375C261.196 37.8116 260.711 37.0279 260.554 36.0241L263.061 35.7827C263.175 36.2751 263.416 36.6468 263.786 36.8977C264.155 37.1487 264.636 37.2741 265.228 37.2741C265.838 37.2741 266.328 37.1487 266.698 36.8977C267.072 36.6468 267.259 36.3366 267.259 35.9673C267.259 35.6548 267.138 35.3968 266.897 35.1932C266.66 34.9896 266.291 34.8333 265.789 34.7244L263.928 34.3338C262.881 34.116 262.107 33.7491 261.605 33.233C261.103 32.7121 260.855 32.054 260.86 31.2585C260.855 30.5862 261.037 30.0038 261.407 29.5114C261.781 29.0142 262.299 28.6307 262.962 28.3608C263.63 28.0862 264.399 27.9489 265.27 27.9489C266.549 27.9489 267.555 28.2211 268.289 28.7656C269.027 29.3101 269.484 30.0464 269.659 30.9744Z" fill="#F9F9FF"/>
</svg>
