<svg width="158" height="56" viewBox="0 0 158 56" fill="none" xmlns="http://www.w3.org/2000/svg">
<rect width="158" height="56" rx="8" fill="#078D4D"/>
<rect width="158" height="56" rx="8" fill="black" fill-opacity="0.2"/>
<path d="M61.3878 20.4545V35H59.044L52.1903 25.0923H52.0696V35H49.4347V20.4545H51.7926L58.6392 30.3693H58.767V20.4545H61.3878ZM68.9748 35.2131C67.881 35.2131 66.9364 34.9858 66.141 34.5312C65.3503 34.072 64.7418 33.4233 64.3157 32.5852C63.8896 31.7424 63.6765 30.7505 63.6765 29.6094C63.6765 28.4872 63.8896 27.5024 64.3157 26.6548C64.7466 25.8026 65.3479 25.1397 66.1197 24.6662C66.8915 24.188 67.7982 23.9489 68.8398 23.9489C69.5122 23.9489 70.1467 24.0578 70.7433 24.2756C71.3446 24.4886 71.8749 24.8201 72.3342 25.2699C72.7982 25.7197 73.1628 26.2926 73.4279 26.9886C73.6931 27.6799 73.8256 28.5038 73.8256 29.4602V30.2486H64.8839V28.5156H71.3612C71.3564 28.0232 71.2499 27.5852 71.0415 27.2017C70.8332 26.8134 70.542 26.508 70.168 26.2855C69.7987 26.063 69.3678 25.9517 68.8754 25.9517C68.3498 25.9517 67.8881 26.0795 67.4904 26.3352C67.0927 26.5862 66.7826 26.9176 66.56 27.3295C66.3422 27.7367 66.2309 28.1842 66.2262 28.6719V30.1847C66.2262 30.8191 66.3422 31.3636 66.5742 31.8182C66.8062 32.268 67.1306 32.6136 67.5472 32.8551C67.9639 33.0919 68.4516 33.2102 69.0103 33.2102C69.3844 33.2102 69.7229 33.1581 70.0259 33.054C70.329 32.9451 70.5917 32.7865 70.8143 32.5781C71.0368 32.3698 71.2049 32.1117 71.3185 31.804L73.7191 32.0739C73.5676 32.7083 73.2788 33.2623 72.8526 33.7358C72.4312 34.2045 71.8915 34.5691 71.2333 34.8295C70.5752 35.0852 69.8223 35.2131 68.9748 35.2131ZM77.8686 24.0909L80.0703 28.1179L82.3075 24.0909H85.0277L81.7393 29.5455L85.0845 35H82.3786L80.0703 31.0724L77.7834 35H75.0561L78.38 29.5455L75.1413 24.0909H77.8686ZM92.4638 24.0909V26.0795H86.1925V24.0909H92.4638ZM87.7408 21.4773H90.3118V31.7188C90.3118 32.0644 90.3639 32.3295 90.468 32.5142C90.5769 32.6941 90.719 32.8172 90.8942 32.8835C91.0694 32.9498 91.2635 32.983 91.4766 32.983C91.6375 32.983 91.7843 32.9711 91.9169 32.9474C92.0542 32.9238 92.1584 32.9025 92.2294 32.8835L92.6626 34.8935C92.5253 34.9408 92.3288 34.9929 92.0732 35.0497C91.8222 35.1065 91.5144 35.1397 91.1499 35.1491C90.5059 35.1681 89.9259 35.071 89.4098 34.858C88.8937 34.6402 88.4841 34.304 88.1811 33.8494C87.8828 33.3949 87.736 32.8267 87.7408 32.1449V21.4773Z" fill="#F9F9FF"/>
<path fill-rule="evenodd" clip-rule="evenodd" d="M118.293 21.2929C118.683 20.9024 119.317 20.9024 119.707 21.2929L125.707 27.2929C126.098 27.6834 126.098 28.3166 125.707 28.7071L119.707 34.7071C119.317 35.0976 118.683 35.0976 118.293 34.7071C117.902 34.3166 117.902 33.6834 118.293 33.2929L123.586 28L118.293 22.7071C117.902 22.3166 117.902 21.6834 118.293 21.2929Z" fill="white"/>
</svg>
