<svg width="197" height="56" viewBox="0 0 197 56" fill="none" xmlns="http://www.w3.org/2000/svg">
<rect x="0.333374" width="196" height="56" rx="8" fill="#078D4D"/>
<path fill-rule="evenodd" clip-rule="evenodd" d="M40.0405 21.2929C40.431 21.6834 40.431 22.3166 40.0405 22.7071L34.7476 28L40.0405 33.2929C40.431 33.6834 40.431 34.3166 40.0405 34.7071C39.65 35.0976 39.0168 35.0976 38.6263 34.7071L32.6263 28.7071C32.2357 28.3166 32.2357 27.6834 32.6263 27.2929L38.6263 21.2929C39.0168 20.9024 39.65 20.9024 40.0405 21.2929Z" fill="white"/>
<path d="M65.768 35V20.4545H71.2226C72.34 20.4545 73.2775 20.6629 74.0351 21.0795C74.7974 21.4962 75.3727 22.0691 75.7609 22.7983C76.1539 23.5227 76.3504 24.3466 76.3504 25.2699C76.3504 26.2027 76.1539 27.0312 75.7609 27.7557C75.3679 28.4801 74.7879 29.0507 74.0209 29.4673C73.2538 29.8793 72.3092 30.0852 71.1871 30.0852H67.572V27.919H70.832C71.4854 27.919 72.0204 27.8054 72.4371 27.5781C72.8537 27.3509 73.1615 27.0384 73.3604 26.6406C73.564 26.2429 73.6658 25.786 73.6658 25.2699C73.6658 24.7538 73.564 24.2992 73.3604 23.9062C73.1615 23.5133 72.8514 23.2079 72.43 22.9901C72.0133 22.7675 71.4759 22.6562 70.8177 22.6562H68.403V35H65.768ZM78.5255 35V24.0909H81.0184V25.9091H81.132C81.3309 25.2794 81.6718 24.794 82.1548 24.4531C82.6424 24.1075 83.1988 23.9347 83.8238 23.9347C83.9658 23.9347 84.1244 23.9418 84.2996 23.956C84.4796 23.9654 84.6287 23.982 84.7471 24.0057V26.3707C84.6382 26.3329 84.4654 26.2997 84.2286 26.2713C83.9966 26.2382 83.7717 26.2216 83.5539 26.2216C83.0851 26.2216 82.6637 26.3234 82.2897 26.527C81.9204 26.7259 81.6292 27.0028 81.4161 27.358C81.203 27.7131 81.0965 28.1226 81.0965 28.5866V35H78.5255ZM90.8355 35.2131C89.7418 35.2131 88.7972 34.9858 88.0017 34.5312C87.211 34.072 86.6026 33.4233 86.1764 32.5852C85.7503 31.7424 85.5372 30.7505 85.5372 29.6094C85.5372 28.4872 85.7503 27.5024 86.1764 26.6548C86.6073 25.8026 87.2086 25.1397 87.9804 24.6662C88.7522 24.188 89.6589 23.9489 90.7006 23.9489C91.3729 23.9489 92.0074 24.0578 92.604 24.2756C93.2053 24.4886 93.7356 24.8201 94.1949 25.2699C94.6589 25.7197 95.0235 26.2926 95.2886 26.9886C95.5538 27.6799 95.6864 28.5038 95.6864 29.4602V30.2486H86.7446V28.5156H93.2219C93.2171 28.0232 93.1106 27.5852 92.9023 27.2017C92.6939 26.8134 92.4027 26.508 92.0287 26.2855C91.6594 26.063 91.2285 25.9517 90.7361 25.9517C90.2105 25.9517 89.7489 26.0795 89.3511 26.3352C88.9534 26.5862 88.6433 26.9176 88.4207 27.3295C88.2029 27.7367 88.0917 28.1842 88.0869 28.6719V30.1847C88.0869 30.8191 88.2029 31.3636 88.4349 31.8182C88.6669 32.268 88.9913 32.6136 89.4079 32.8551C89.8246 33.0919 90.3123 33.2102 90.871 33.2102C91.2451 33.2102 91.5836 33.1581 91.8866 33.054C92.1897 32.9451 92.4525 32.7865 92.675 32.5781C92.8975 32.3698 93.0656 32.1117 93.1793 31.804L95.5798 32.0739C95.4283 32.7083 95.1395 33.2623 94.7133 33.7358C94.2919 34.2045 93.7522 34.5691 93.094 34.8295C92.4359 35.0852 91.683 35.2131 90.8355 35.2131ZM107.293 24.0909L103.408 35H100.567L96.6825 24.0909H99.4239L101.931 32.1946H102.045L104.559 24.0909H107.293ZM109.072 35V24.0909H111.643V35H109.072ZM110.365 22.5426C109.958 22.5426 109.607 22.4077 109.314 22.1378C109.02 21.8632 108.874 21.5341 108.874 21.1506C108.874 20.7623 109.02 20.4332 109.314 20.1634C109.607 19.8887 109.958 19.7514 110.365 19.7514C110.777 19.7514 111.127 19.8887 111.416 20.1634C111.71 20.4332 111.856 20.7623 111.856 21.1506C111.856 21.5341 111.71 21.8632 111.416 22.1378C111.127 22.4077 110.777 22.5426 110.365 22.5426ZM119.046 35.2131C117.98 35.2131 117.057 34.9787 116.276 34.5099C115.495 34.0412 114.889 33.3854 114.458 32.5426C114.032 31.6998 113.818 30.715 113.818 29.5881C113.818 28.4612 114.032 27.474 114.458 26.6264C114.889 25.7789 115.495 25.1207 116.276 24.652C117.057 24.1832 117.98 23.9489 119.046 23.9489C120.111 23.9489 121.034 24.1832 121.816 24.652C122.597 25.1207 123.201 25.7789 123.627 26.6264C124.058 27.474 124.273 28.4612 124.273 29.5881C124.273 30.715 124.058 31.6998 123.627 32.5426C123.201 33.3854 122.597 34.0412 121.816 34.5099C121.034 34.9787 120.111 35.2131 119.046 35.2131ZM119.06 33.1534C119.638 33.1534 120.121 32.9948 120.509 32.6776C120.897 32.3556 121.186 31.9247 121.375 31.3849C121.569 30.8452 121.666 30.2438 121.666 29.581C121.666 28.9134 121.569 28.3097 121.375 27.7699C121.186 27.2254 120.897 26.7921 120.509 26.4702C120.121 26.1482 119.638 25.9872 119.06 25.9872C118.468 25.9872 117.976 26.1482 117.583 26.4702C117.194 26.7921 116.903 27.2254 116.709 27.7699C116.52 28.3097 116.425 28.9134 116.425 29.581C116.425 30.2438 116.52 30.8452 116.709 31.3849C116.903 31.9247 117.194 32.3556 117.583 32.6776C117.976 32.9948 118.468 33.1534 119.06 33.1534ZM133.408 30.4119V24.0909H135.979V35H133.486V33.0611H133.373C133.127 33.6719 132.722 34.1714 132.158 34.5597C131.6 34.9479 130.911 35.142 130.092 35.142C129.377 35.142 128.744 34.9834 128.195 34.6662C127.651 34.3442 127.225 33.8778 126.917 33.267C126.609 32.6515 126.455 31.9081 126.455 31.0369V24.0909H129.026V30.6392C129.026 31.3305 129.216 31.8797 129.594 32.2869C129.973 32.6941 130.47 32.8977 131.086 32.8977C131.465 32.8977 131.832 32.8054 132.187 32.6207C132.542 32.4361 132.833 32.1615 133.06 31.7969C133.292 31.4276 133.408 30.9659 133.408 30.4119ZM147.245 26.9744L144.902 27.2301C144.835 26.9934 144.719 26.7708 144.554 26.5625C144.393 26.3542 144.175 26.1861 143.9 26.0582C143.626 25.9304 143.289 25.8665 142.892 25.8665C142.357 25.8665 141.907 25.9825 141.542 26.2145C141.182 26.4465 141.005 26.7472 141.01 27.1165C141.005 27.4337 141.121 27.6918 141.358 27.8906C141.599 28.0895 141.997 28.2528 142.551 28.3807L144.411 28.7784C145.444 29.0009 146.211 29.3537 146.713 29.8366C147.219 30.3196 147.475 30.9517 147.48 31.733C147.475 32.4195 147.274 33.0256 146.876 33.5511C146.483 34.072 145.936 34.4792 145.235 34.7727C144.535 35.0663 143.73 35.2131 142.821 35.2131C141.485 35.2131 140.411 34.9337 139.596 34.375C138.782 33.8116 138.296 33.0279 138.14 32.0241L140.647 31.7827C140.761 32.2751 141.002 32.6468 141.372 32.8977C141.741 33.1487 142.222 33.2741 142.813 33.2741C143.424 33.2741 143.914 33.1487 144.284 32.8977C144.658 32.6468 144.845 32.3366 144.845 31.9673C144.845 31.6548 144.724 31.3968 144.483 31.1932C144.246 30.9896 143.876 30.8333 143.375 30.7244L141.514 30.3338C140.467 30.116 139.693 29.7491 139.191 29.233C138.689 28.7121 138.441 28.054 138.446 27.2585C138.441 26.5862 138.623 26.0038 138.992 25.5114C139.367 25.0142 139.885 24.6307 140.548 24.3608C141.215 24.0862 141.985 23.9489 142.856 23.9489C144.135 23.9489 145.141 24.2211 145.875 24.7656C146.613 25.3101 147.07 26.0464 147.245 26.9744Z" fill="#F9F9FF"/>
</svg>
